subject_05
version=1
nRows=291
nColumns=3
inDegrees=yes
endheader
time	r_shoulder_elev	r_elbow_flex
0.0000	19.716728	13.321275
0.0100	19.716728	13.321146
0.0200	19.716728	13.321652
0.0300	19.716728	13.323523
0.0400	19.716728	13.327341
0.0500	19.716728	13.333508
0.0600	19.716728	13.342302
0.0700	19.716728	13.354008
0.0800	19.716728	13.369052
0.0900	19.716728	13.388059
0.1000	19.716728	13.411800
0.1100	19.716728	13.441048
0.1200	19.716728	13.476413
0.1300	19.716728	13.518249
0.1400	19.716728	13.566671
0.1500	19.716728	13.621691
0.1600	19.716728	13.683396
0.1700	19.716728	13.752083
0.1800	19.716728	13.828280
0.1900	19.716728	13.912658
0.2000	19.716728	14.005861
0.2100	19.716728	14.108366
0.2200	19.716728	14.220420
0.2300	19.716728	14.342087
0.2400	19.716728	14.473372
0.2500	19.716728	14.614345
0.2600	19.716728	14.765201
0.2700	19.716728	14.926246
0.2800	19.716728	15.097814
0.2900	19.716728	15.280196
0.3000	19.716728	15.473614
0.3100	19.716728	15.678264
0.3200	19.716728	15.894379
0.3300	19.716728	16.122257
0.3400	19.716728	16.362210
0.3500	19.716728	16.614456
0.3600	19.716728	16.878997
0.3700	19.716728	17.155584
0.3800	19.716728	17.443822
0.3900	19.716728	17.743384
0.4000	19.716728	18.054258
0.4100	19.716728	18.376882
0.4200	19.716728	18.712075
0.4300	19.716728	19.060754
0.4400	19.716728	19.423548
0.4500	19.716728	19.800489
0.4600	19.716728	20.190932
0.4700	19.716728	20.593788
0.4800	19.716728	21.007972
0.4900	19.716728	21.432893
0.5000	19.716728	21.868732
0.5100	19.716728	22.316382
0.5200	19.716728	22.777059
0.5300	19.716728	23.251748
0.5400	19.716728	23.740747
0.5500	19.716728	24.243528
0.5600	19.716728	24.758989
0.5700	19.716728	25.285963
0.5800	19.716728	25.823748
0.5900	19.716728	26.372395
0.6000	19.716728	26.932597
0.6100	19.716728	27.505248
0.6200	19.716728	28.090887
0.6300	19.716728	28.689314
0.6400	19.716728	29.299591
0.6500	19.716728	29.920438
0.6600	19.716728	30.550842
0.6700	19.716728	31.190571
0.6800	19.716728	31.840337
0.6900	19.716728	32.501484
0.7000	19.716728	33.175348
0.7100	19.716728	33.862554
0.7200	19.716728	34.562584
0.7300	19.716728	35.273828
0.7400	19.716728	35.994090
0.7500	19.716728	36.721354
0.7600	19.716728	37.454477
0.7700	19.716728	38.193546
0.7800	19.716728	38.939776
0.7900	19.716728	39.695021
0.8000	19.716728	40.461118
0.8100	19.716728	41.239285
0.8200	19.716728	42.029757
0.8300	19.716728	42.831694
0.8400	19.716728	43.643320
0.8500	19.716728	44.462234
0.8600	19.716728	45.285833
0.8700	19.716728	46.111846
0.8800	19.716728	46.938927
0.8900	19.716728	47.767197
0.9000	19.716728	48.598510
0.9100	19.716728	49.436218
0.9200	19.716728	50.284289
0.9300	19.716728	51.145925
0.9400	19.716728	52.022084
0.9500	19.716728	52.910523
0.9600	19.716728	53.805912
0.9700	19.716728	54.701229
0.9800	19.716728	55.590114
0.9900	19.716728	56.469360
1.0000	19.716728	57.340512
1.0100	19.716728	58.209732
1.0200	19.716728	59.085769
1.0300	19.716728	59.976635
1.0400	19.716728	60.886245
1.0500	19.716728	61.812446
1.0600	19.716728	62.747359
1.0700	19.716728	63.680096
1.0800	19.716728	64.600846
1.0900	19.716728	65.504703
1.1000	19.716728	66.393612
1.1100	19.716728	67.275560
1.1200	19.716728	68.161257
1.1300	19.716728	69.059677
1.1400	19.716728	69.974330
1.1500	19.716728	70.901851
1.1600	19.716728	71.833491
1.1700	19.716728	72.758862
1.1800	19.716728	73.670243
1.1900	19.716728	74.565585
1.2000	19.716728	75.448905
1.2100	19.716728	76.327986
1.2200	19.716728	77.210493
1.2300	19.716728	78.100354
1.2400	19.716728	78.996046
1.2500	19.716728	79.891540
1.2600	19.716728	80.779381
1.2700	19.716728	81.654361
1.2800	19.716728	82.515991
1.2900	19.716728	83.368567
1.3000	19.716728	84.218814
1.3100	19.716728	85.072255
1.3200	19.716728	85.930116
1.3300	19.716728	86.788318
1.3400	19.716728	87.639107
1.3500	19.716728	88.474602
1.3600	19.716728	89.290563
1.3700	19.716728	90.088565
1.3800	19.716728	90.875447
1.3900	19.716728	91.660235
1.4000	19.716728	92.449919
1.4100	19.716728	93.246054
1.4200	19.716728	94.043803
1.4300	19.716728	94.833906
1.4400	19.716728	95.606701
1.4500	19.716728	96.356342
1.4600	19.716728	97.083286
1.4700	19.716728	97.793895
1.4800	19.716728	98.497363
1.4900	19.716728	99.201417
1.5000	19.716728	99.908785
1.5100	19.716728	100.616063
1.5200	19.716728	101.315437
1.5300	19.716728	101.998409
1.5400	19.716728	102.659724
1.5500	19.716728	103.299655
1.5600	19.716728	103.923602
1.5700	19.716728	104.539251
1.5800	19.716728	105.152708
1.5900	19.716728	105.765460
1.6000	19.716728	106.373606
1.6100	19.716728	106.969698
1.6200	19.716728	107.546280
1.6300	19.716728	108.099433
1.6400	19.716728	108.630638
1.6500	19.716728	109.146105
1.6600	19.716728	109.653906
1.6700	19.716728	110.160268
1.6800	19.716728	110.666738
1.6900	19.716728	111.169501
1.7000	19.716728	111.661087
1.7100	19.716728	112.133631
1.7200	19.716728	112.582167
1.7300	19.716728	113.006519
1.7400	19.716728	113.411044
1.7500	19.716728	113.802513
1.7600	19.716728	114.187193
1.7700	19.716728	114.568472
1.7800	19.716728	114.945979
1.7900	19.716728	115.316359
1.8000	19.716728	115.675121
1.8100	19.716728	116.018551
1.8200	19.716728	116.344840
1.8300	19.716728	116.654075
1.8400	19.716728	116.947424
1.8500	19.716728	117.226154
1.8600	19.716728	117.491141
1.8700	19.716728	117.743074
1.8800	19.716728	117.983073
1.8900	19.716728	118.213118
1.9000	19.716728	118.435799
1.9100	19.716728	118.653292
1.9200	19.716728	118.866029
1.9300	19.716728	119.071840
1.9400	19.716728	119.266213
1.9500	19.716728	119.443835
1.9600	19.716728	119.600879
1.9700	19.716728	119.737019
1.9800	19.716728	119.856156
1.9900	19.716728	119.965330
2.0000	19.716728	120.072145
2.0100	19.716728	120.181732
2.0200	19.716728	120.294600
2.0300	19.716728	120.406375
2.0400	19.716728	120.509624
2.0500	19.716728	120.597020
2.0600	19.716728	120.664476
2.0700	19.716728	120.712908
2.0800	19.716728	120.747855
2.0900	19.716728	120.777170
2.1000	19.716728	120.807835
2.1100	19.716728	120.843302
2.1200	19.716728	120.882492
2.1300	19.716728	120.920782
2.1400	19.716728	120.952420
2.1500	19.716728	120.973225
2.1600	19.716728	120.982358
2.1700	19.716728	120.982489
2.1800	19.716728	120.978440
2.1900	19.716728	120.975073
2.2000	19.716728	120.975460
2.2100	19.716728	120.980092
2.2200	19.716728	120.987364
2.2300	19.716728	120.994681
2.2400	19.716728	120.999741
2.2500	19.716728	121.001669
2.2600	19.716728	121.001016
2.2700	19.716728	120.999059
2.2800	19.716728	120.996966
2.2900	19.716728	120.995325
2.3000	19.716728	120.994238
2.3100	19.716728	120.993792
2.3200	19.716728	120.994464
2.3300	19.716728	120.997087
2.3400	19.716728	121.002300
2.3500	19.716728	121.009807
2.3600	19.716728	121.017946
2.3700	19.716728	121.024006
2.3800	19.716728	121.025313
2.3900	19.716728	121.020635
2.4000	19.716728	121.011189
2.4100	19.716728	121.000602
2.4200	19.716728	120.993661
2.4300	19.716728	120.994210
2.4400	19.716728	121.003042
2.4500	19.716728	121.017297
2.4600	19.716728	121.031282
2.4700	19.716728	121.038588
2.4800	19.716728	121.034655
2.4900	19.716728	121.018637
2.5000	19.716728	120.993670
2.5100	19.716728	120.965363
2.5200	19.716728	120.939191
2.5300	19.716728	120.917973
2.5400	19.716728	120.900594
2.5500	19.716728	120.882571
2.5600	19.716728	120.858146
2.5700	19.716728	120.822880
2.5800	19.716728	120.775516
2.5900	19.716728	120.718192
2.6000	19.716728	120.654979
2.6100	19.716728	120.589478
2.6200	19.716728	120.522733
2.6300	19.716728	120.452499
2.6400	19.716728	120.374264
2.6500	19.716728	120.283520
2.6600	19.716728	120.178147
2.6700	19.716728	120.059705
2.6800	19.716728	119.932937
2.6900	19.716728	119.803655
2.7000	19.716728	119.675973
2.7100	19.716728	119.550162
2.7200	19.716728	119.422136
2.7300	19.716728	119.284814
2.7400	19.716728	119.130793
2.7500	19.716728	118.955168
2.7600	19.716728	118.757352
2.7700	19.716728	118.541229
2.7800	19.716728	118.313688
2.7900	19.716728	118.082237
2.8000	19.716728	117.852630
2.8100	19.716728	117.627269
2.8200	19.716728	117.404711
2.8300	19.716728	117.180180
2.8400	19.716728	116.946714
2.8500	19.716728	116.696647
2.8600	19.716728	116.423239
2.8700	19.716728	116.122353
2.8800	19.716728	115.793981
2.8900	19.716728	115.443147
2.9000	19.716728	115.079595
